<?xml version="1.0" encoding="UTF-8" standalone="no"?>
<svg
   xmlns:dc="http://purl.org/dc/elements/1.1/"
   xmlns:cc="http://creativecommons.org/ns#"
   xmlns:rdf="http://www.w3.org/1999/02/22-rdf-syntax-ns#"
   xmlns:svg="http://www.w3.org/2000/svg"
   xmlns="http://www.w3.org/2000/svg"
   xmlns:sodipodi="http://sodipodi.sourceforge.net/DTD/sodipodi-0.dtd"
   xmlns:inkscape="http://www.inkscape.org/namespaces/inkscape"
   width="11.19481mm"
   height="11.19481mm"
   viewBox="0 0 11.19481 11.19481"
   version="1.1"
   id="svg8"
   sodipodi:docname="icon.svg"
   inkscape:version="1.0.2 (e86c870879, 2021-01-15, custom)"
   inkscape:export-xdpi="1161.6812"
   inkscape:export-ydpi="1161.6812">
  <defs
     id="defs2">
    <inkscape:path-effect
       effect="mirror_symmetry"
       start_point="81.15,31.503288"
       end_point="81.15,34.642544"
       center_point="81.15,33.072916"
       id="path-effect976"
       is_visible="true"
       lpeversion="1"
       mode="free"
       discard_orig_path="false"
       fuse_paths="true"
       oposite_fuse="false"
       split_items="false" />
    <inkscape:path-effect
       effect="mirror_symmetry"
       start_point="66.875869,27.088692"
       end_point="66.875869,37.368748"
       center_point="66.875869,32.22872"
       id="path-effect966"
       is_visible="true"
       lpeversion="1"
       mode="free"
       discard_orig_path="false"
       fuse_paths="true"
       oposite_fuse="false"
       split_items="false" />
  </defs>
  <sodipodi:namedview
     id="base"
     pagecolor="#ffffff"
     bordercolor="#666666"
     borderopacity="1.0"
     inkscape:pageopacity="0.0"
     inkscape:pageshadow="2"
     inkscape:zoom="8.0000001"
     inkscape:cx="40.248343"
     inkscape:cy="40.122344"
     inkscape:document-units="mm"
     inkscape:current-layer="layer1"
     inkscape:document-rotation="0"
     showgrid="true"
     inkscape:window-width="1920"
     inkscape:window-height="1009"
     inkscape:window-x="1280"
     inkscape:window-y="0"
     inkscape:window-maximized="1"
     inkscape:snap-global="true"
     inkscape:snap-grids="false"
     inkscape:object-paths="false"
     inkscape:snap-intersection-paths="false"
     showguides="false"
     fit-margin-top="0"
     fit-margin-left="0"
     fit-margin-right="0"
     fit-margin-bottom="0">
    <inkscape:grid
       type="xygrid"
       id="grid871"
       originx="-2.6932733"
       originy="-0.8423916" />
  </sodipodi:namedview>
  <metadata
     id="metadata5">
    <rdf:RDF>
      <cc:Work
         rdf:about="">
        <dc:format>image/svg+xml</dc:format>
        <dc:type
           rdf:resource="http://purl.org/dc/dcmitype/StillImage" />
        <dc:title></dc:title>
      </cc:Work>
    </rdf:RDF>
  </metadata>
  <g
     inkscape:label="Ebene 1"
     inkscape:groupmode="layer"
     id="layer1"
     transform="translate(-2.693273,-0.84239159)">
    <rect
       style="fill:#388e3c;fill-opacity:1;stroke:#388e3c;stroke-width:0.439;stroke-linejoin:miter;stroke-miterlimit:4;stroke-dasharray:none"
       id="rect840"
       width="12.819573"
       height="12.819573"
       x="1.8808912"
       y="0.030009806"
       rx="0"
       ry="0"
       inkscape:export-xdpi="980.8606"
       inkscape:export-ydpi="980.8606" />
    <g
       id="g848"
       transform="translate(1.1734855)"
       inkscape:export-xdpi="980.8606"
       inkscape:export-ydpi="980.8606">
      <path
         d="m 65.352066,27.252083 c -0.582083,0 -1.058333,0.47627 -1.058333,1.058353 v 8.466667 c -0.885619,0.221781 -0.789844,0.498083 -0.801809,0.7684 h 3.383945 3.383945 c -0.01197,-0.270317 0.08381,-0.546619 -0.801809,-0.7684 v -8.466667 c 0,-0.582083 -0.47625,-1.058353 -1.058333,-1.058353 h -1.523803 z m -0.03363,3.703833 v -2.645833 h 1.557433 1.557433 v 2.645833 l -1.557433,1.25e-4 z"
         id="path4-7"
         style="fill:#280606;fill-opacity:1;stroke-width:0.529167"
         sodipodi:nodetypes="cscccccccccc"
         transform="translate(-59.754972,-25.508301)"
         inkscape:original-d="m 65.352066,27.252083 c -0.582083,0 -1.058333,0.47627 -1.058333,1.058353 v 8.466667 c -0.885619,0.221781 -0.789844,0.498083 -0.801809,0.7684 h 3.594742 v -10.29342 z m -0.03363,3.703833 v -2.645833 h 2.0866 v 2.646 z"
         inkscape:path-effect="#path-effect966"
         inkscape:export-xdpi="1942.3135"
         inkscape:export-ydpi="1942.3135" />
      <path
         id="rect839"
         style="fill:#b71c1c;fill-opacity:1;stroke:#b71c1c;stroke-width:0.367058;stroke-linecap:butt;stroke-linejoin:miter;stroke-miterlimit:4;stroke-dasharray:none;stroke-dashoffset:0;stroke-opacity:1;paint-order:normal"
         d="M 80.793436,31.473872 H 81.15 81.506564 l -0.243883,0.387936 0.243883,2.265505 -0.356564,0.485816 -0.356564,-0.485816 0.243883,-2.265505 z"
         sodipodi:nodetypes="cccccc"
         inkscape:path-effect="#path-effect976"
         inkscape:original-d="M 80.793436,31.473872 H 81.15 c 0.119824,1.194552 0.481286,2.44447 0,3.139257 l -0.356564,-0.485816 0.243883,-2.265505 z"
         transform="matrix(0.99965908,0,0,1.0000249,-74.001611,-25.843514)"
         inkscape:export-xdpi="1942.3135"
         inkscape:export-ydpi="1942.3135" />
      <path
         d="m 7.1211372,0.84239159 c -1.4001251,0 -4.4278642,0.31417101 -4.4278642,1.84001461 v 2.1490767 c 0,0.5096376 0.3774988,0.9210324 0.8451459,0.9210324 H 4.3835648 V 3.2964282 H 3.256704 v -0.614022 c 0,-1.1881314 2.7741943,-1.2259925 3.8644332,-1.2259925 1.0902377,0 3.8565438,0.037862 3.8565438,1.2259925 v 0.614022 H 9.8508207 V 5.7525153 H 10.977681 V 6.0595257 H 9.0056749 v 0.614022 h 1.6902921 c 0.467647,0 0.845145,-0.4113948 0.845145,-0.9210324 V 2.6824062 c 0,-1.5258436 -3.0198498,-1.84001461 -4.4199748,-1.84001461 z"
         id="path4-5"
         style="fill:#280606;fill-opacity:1;stroke-width:0.294553;stroke-miterlimit:4;stroke-dasharray:none"
         sodipodi:nodetypes="sssscccssscccccccssss"
         inkscape:export-xdpi="1942.3135"
         inkscape:export-ydpi="1942.3135" />
      <path
         d="m 3.1598823,6.6201742 -0.0021,-0.0021 0.78956,-0.789561 0.224983,0.224983 -0.447842,0.447842 c 0.199512,0.07641 0.341718,0.267432 0.341718,0.494537 0,0.292901 -0.237717,0.530619 -0.530619,0.530619 -0.07641,0 -0.14645,-0.01698 -0.212247,-0.04457 v 3.5146798 c 0,0.116736 0.09551,0.212247 0.212247,0.212247 0.116737,0 0.212248,-0.09551 0.212248,-0.212247 V 8.2745902 c 0,-0.237989 0.191023,-0.424495 0.424495,-0.424495 h 0.366983 v 0.318371 h -0.473107 v 2.8281378 c 0,0.329398 -0.237717,0.530618 -0.530619,0.530618 -0.292901,0 -0.530619,-0.237717 -0.530619,-0.530618 V 6.9958802 c 0.01134,-0.118112 0.03191,-0.237855 0.154941,-0.375678 z m 0.375679,0.587926 c 0.116736,0 0.212247,-0.09551 0.212247,-0.212248 0,-0.116736 -0.09551,-0.212248 -0.212247,-0.212248 -0.116737,0 -0.212248,0.09551 -0.212248,0.212248 0,0.116736 0.09551,0.212248 0.212248,0.212248 z"
         id="path4-3"
         style="fill:#280606;fill-opacity:1;stroke-width:0.529167"
         sodipodi:nodetypes="cccccsscssssscccssscccsssss"
         inkscape:export-xdpi="1942.3135"
         inkscape:export-ydpi="1942.3135" />
    </g>
  </g>
</svg>
